<mxfile host="Electron" modified="2023-12-19T13:06:13.714Z" agent="Mozilla/5.0 (Windows NT 10.0; Win64; x64) AppleWebKit/537.36 (KHTML, like Gecko) draw.io/21.2.8 Chrome/112.0.5615.165 Electron/24.2.0 Safari/537.36" etag="nz3jManPw9aPixC2kKvV" version="21.2.8" type="device">
  <diagram name="Page-1" id="XnzADeMt7MzlG9ctFfFO">
    <mxGraphModel dx="744" dy="698" grid="1" gridSize="10" guides="1" tooltips="1" connect="1" arrows="1" fold="1" page="1" pageScale="1" pageWidth="827" pageHeight="1169" math="0" shadow="0">
      <root>
        <mxCell id="0" />
        <mxCell id="1" parent="0" />
        <mxCell id="K91KwnzZ5OIdgcqQ_6Yv-14" style="edgeStyle=orthogonalEdgeStyle;rounded=0;orthogonalLoop=1;jettySize=auto;html=1;exitX=1;exitY=0.5;exitDx=0;exitDy=0;entryX=0;entryY=0.5;entryDx=0;entryDy=0;" edge="1" parent="1" source="K91KwnzZ5OIdgcqQ_6Yv-1" target="K91KwnzZ5OIdgcqQ_6Yv-9">
          <mxGeometry relative="1" as="geometry" />
        </mxCell>
        <mxCell id="K91KwnzZ5OIdgcqQ_6Yv-1" value="" style="rounded=1;whiteSpace=wrap;html=1;fillColor=#dae8fc;gradientColor=#7ea6e0;strokeColor=#000000;strokeWidth=2;" vertex="1" parent="1">
          <mxGeometry x="59" y="250" width="140" height="100" as="geometry" />
        </mxCell>
        <mxCell id="K91KwnzZ5OIdgcqQ_6Yv-2" value="&lt;b&gt;&lt;font style=&quot;font-size: 16px;&quot; face=&quot;Verdana&quot;&gt;TableA:&lt;/font&gt;&lt;/b&gt;" style="text;html=1;align=center;verticalAlign=middle;resizable=0;points=[];autosize=1;strokeColor=none;fillColor=none;" vertex="1" parent="1">
          <mxGeometry x="64" y="260" width="90" height="30" as="geometry" />
        </mxCell>
        <mxCell id="K91KwnzZ5OIdgcqQ_6Yv-3" value="&lt;font style=&quot;font-size: 16px;&quot; face=&quot;Verdana&quot;&gt;1001, a1&lt;br&gt;1001, a2&lt;/font&gt;" style="text;html=1;align=center;verticalAlign=middle;resizable=0;points=[];autosize=1;strokeColor=none;fillColor=none;" vertex="1" parent="1">
          <mxGeometry x="79" y="290" width="100" height="50" as="geometry" />
        </mxCell>
        <mxCell id="K91KwnzZ5OIdgcqQ_6Yv-17" style="edgeStyle=orthogonalEdgeStyle;rounded=0;orthogonalLoop=1;jettySize=auto;html=1;exitX=1;exitY=0.5;exitDx=0;exitDy=0;entryX=0;entryY=0.5;entryDx=0;entryDy=0;" edge="1" parent="1" source="K91KwnzZ5OIdgcqQ_6Yv-6" target="K91KwnzZ5OIdgcqQ_6Yv-16">
          <mxGeometry relative="1" as="geometry" />
        </mxCell>
        <mxCell id="K91KwnzZ5OIdgcqQ_6Yv-6" value="" style="rounded=1;whiteSpace=wrap;html=1;fillColor=#dae8fc;gradientColor=#7ea6e0;strokeColor=#000000;strokeWidth=2;" vertex="1" parent="1">
          <mxGeometry x="59" y="410" width="140" height="100" as="geometry" />
        </mxCell>
        <mxCell id="K91KwnzZ5OIdgcqQ_6Yv-7" value="&lt;b&gt;&lt;font style=&quot;font-size: 16px;&quot; face=&quot;Verdana&quot;&gt;TableB:&lt;/font&gt;&lt;/b&gt;" style="text;html=1;align=center;verticalAlign=middle;resizable=0;points=[];autosize=1;strokeColor=none;fillColor=none;" vertex="1" parent="1">
          <mxGeometry x="64" y="420" width="90" height="30" as="geometry" />
        </mxCell>
        <mxCell id="K91KwnzZ5OIdgcqQ_6Yv-8" value="&lt;font style=&quot;font-size: 16px;&quot; face=&quot;Verdana&quot;&gt;1001, b1&lt;br&gt;1001, b2&lt;/font&gt;" style="text;html=1;align=center;verticalAlign=middle;resizable=0;points=[];autosize=1;strokeColor=none;fillColor=none;" vertex="1" parent="1">
          <mxGeometry x="79" y="450" width="100" height="50" as="geometry" />
        </mxCell>
        <mxCell id="K91KwnzZ5OIdgcqQ_6Yv-22" style="edgeStyle=orthogonalEdgeStyle;rounded=0;orthogonalLoop=1;jettySize=auto;html=1;exitX=1;exitY=0.5;exitDx=0;exitDy=0;entryX=0;entryY=0.5;entryDx=0;entryDy=0;" edge="1" parent="1" source="K91KwnzZ5OIdgcqQ_6Yv-9" target="K91KwnzZ5OIdgcqQ_6Yv-12">
          <mxGeometry relative="1" as="geometry" />
        </mxCell>
        <mxCell id="K91KwnzZ5OIdgcqQ_6Yv-9" value="" style="rounded=1;whiteSpace=wrap;html=1;fillColor=#f8cecc;gradientColor=#ea6b66;strokeColor=#180201;strokeWidth=2;" vertex="1" parent="1">
          <mxGeometry x="282" y="250" width="230" height="100" as="geometry" />
        </mxCell>
        <mxCell id="K91KwnzZ5OIdgcqQ_6Yv-10" value="&lt;b&gt;&lt;font style=&quot;font-size: 16px;&quot; face=&quot;Verdana&quot;&gt;Reducer:&lt;/font&gt;&lt;/b&gt;" style="text;html=1;align=center;verticalAlign=middle;resizable=0;points=[];autosize=1;strokeColor=none;fillColor=none;" vertex="1" parent="1">
          <mxGeometry x="292" y="260" width="100" height="30" as="geometry" />
        </mxCell>
        <mxCell id="K91KwnzZ5OIdgcqQ_6Yv-11" value="&lt;font style=&quot;font-size: 16px;&quot; face=&quot;Verdana&quot;&gt;1001, a1&lt;span style=&quot;white-space: pre;&quot;&gt;	&lt;/span&gt;1001, b1&lt;br&gt;1001, a2&lt;span style=&quot;white-space: pre;&quot;&gt;	&lt;/span&gt;1001, b2&lt;/font&gt;" style="text;html=1;align=center;verticalAlign=middle;resizable=0;points=[];autosize=1;strokeColor=none;fillColor=none;" vertex="1" parent="1">
          <mxGeometry x="311" y="290" width="190" height="50" as="geometry" />
        </mxCell>
        <mxCell id="K91KwnzZ5OIdgcqQ_6Yv-12" value="" style="rounded=1;whiteSpace=wrap;html=1;fillColor=#fff2cc;gradientColor=#ffd966;strokeColor=#191301;strokeWidth=2;" vertex="1" parent="1">
          <mxGeometry x="583" y="250" width="230" height="100" as="geometry" />
        </mxCell>
        <mxCell id="K91KwnzZ5OIdgcqQ_6Yv-13" value="&lt;font style=&quot;font-size: 16px;&quot; face=&quot;Verdana&quot;&gt;&lt;font style=&quot;font-size: 16px;&quot;&gt;1001, a1--1001, b1&lt;br&gt;1001, a2--1001, b2&lt;br&gt;&lt;/font&gt;1001, a1--&lt;span style=&quot;&quot;&gt;1001, b1&lt;/span&gt;&lt;br style=&quot;border-color: var(--border-color);&quot;&gt;&lt;span style=&quot;&quot;&gt;1001, a2--&lt;/span&gt;&lt;span style=&quot;&quot;&gt;1001, b2&lt;/span&gt;&lt;/font&gt;&lt;font style=&quot;font-size: 16px;&quot; face=&quot;Verdana&quot;&gt;&lt;br&gt;&lt;/font&gt;" style="text;html=1;align=center;verticalAlign=middle;resizable=0;points=[];autosize=1;strokeColor=none;fillColor=none;" vertex="1" parent="1">
          <mxGeometry x="608" y="255" width="180" height="90" as="geometry" />
        </mxCell>
        <mxCell id="K91KwnzZ5OIdgcqQ_6Yv-21" style="edgeStyle=orthogonalEdgeStyle;rounded=0;orthogonalLoop=1;jettySize=auto;html=1;exitX=1;exitY=0.5;exitDx=0;exitDy=0;entryX=0;entryY=0.5;entryDx=0;entryDy=0;" edge="1" parent="1" source="K91KwnzZ5OIdgcqQ_6Yv-16" target="K91KwnzZ5OIdgcqQ_6Yv-20">
          <mxGeometry relative="1" as="geometry" />
        </mxCell>
        <mxCell id="K91KwnzZ5OIdgcqQ_6Yv-16" value="" style="rounded=1;whiteSpace=wrap;html=1;fillColor=#f8cecc;gradientColor=#ea6b66;strokeColor=#180201;strokeWidth=2;" vertex="1" parent="1">
          <mxGeometry x="282" y="410" width="230" height="100" as="geometry" />
        </mxCell>
        <mxCell id="K91KwnzZ5OIdgcqQ_6Yv-18" value="" style="endArrow=classic;html=1;rounded=0;exitX=1;exitY=0.5;exitDx=0;exitDy=0;entryX=0;entryY=0.5;entryDx=0;entryDy=0;" edge="1" parent="1" source="K91KwnzZ5OIdgcqQ_6Yv-6" target="K91KwnzZ5OIdgcqQ_6Yv-9">
          <mxGeometry width="50" height="50" relative="1" as="geometry">
            <mxPoint x="300" y="350" as="sourcePoint" />
            <mxPoint x="350" y="300" as="targetPoint" />
          </mxGeometry>
        </mxCell>
        <mxCell id="K91KwnzZ5OIdgcqQ_6Yv-19" value="" style="endArrow=classic;html=1;rounded=0;exitX=1;exitY=0.5;exitDx=0;exitDy=0;" edge="1" parent="1" source="K91KwnzZ5OIdgcqQ_6Yv-1">
          <mxGeometry width="50" height="50" relative="1" as="geometry">
            <mxPoint x="300" y="350" as="sourcePoint" />
            <mxPoint x="280" y="460" as="targetPoint" />
          </mxGeometry>
        </mxCell>
        <mxCell id="K91KwnzZ5OIdgcqQ_6Yv-20" value="" style="rounded=1;whiteSpace=wrap;html=1;fillColor=#fff2cc;gradientColor=#ffd966;strokeColor=#191301;strokeWidth=2;" vertex="1" parent="1">
          <mxGeometry x="583" y="410" width="230" height="100" as="geometry" />
        </mxCell>
      </root>
    </mxGraphModel>
  </diagram>
</mxfile>
